<mxfile host="www.draw.io" modified="2023-04-24T19:56:15.995Z" agent="Mozilla/5.0 (Windows NT 10.0; Win64; x64) AppleWebKit/537.36 (KHTML, like Gecko) Chrome/112.0.0.0 Safari/537.36 Edg/112.0.1722.39" etag="YYz0-tvsHndg7p6eZa3M" version="21.2.1" type="device">
  <diagram name="Page-1" id="sgN0CWFrhFgfOdaVjAVg">
    <mxGraphModel dx="1002" dy="558" grid="1" gridSize="10" guides="1" tooltips="1" connect="1" arrows="1" fold="1" page="1" pageScale="1" pageWidth="850" pageHeight="1100" math="0" shadow="0">
      <root>
        <mxCell id="0" />
        <mxCell id="1" parent="0" />
        <mxCell id="o-pPiKlTQ6JEq2CxEZl6-2" value="1st color" style="swimlane;whiteSpace=wrap;html=1;startSize=20;" vertex="1" parent="1">
          <mxGeometry x="160" y="190" width="170" height="86" as="geometry" />
        </mxCell>
        <mxCell id="o-pPiKlTQ6JEq2CxEZl6-5" value="open 1st&amp;nbsp; image" style="text;strokeColor=none;fillColor=none;align=center;verticalAlign=middle;spacingLeft=4;spacingRight=4;overflow=hidden;points=[[0,0.5],[1,0.5]];portConstraint=eastwest;rotatable=0;whiteSpace=wrap;html=1;" vertex="1" parent="1">
          <mxGeometry x="185" y="150" width="120" height="30" as="geometry" />
        </mxCell>
        <mxCell id="o-pPiKlTQ6JEq2CxEZl6-8" value="2nd color" style="swimlane;whiteSpace=wrap;html=1;startSize=20;" vertex="1" parent="1">
          <mxGeometry x="350" y="190" width="170" height="86" as="geometry" />
        </mxCell>
        <mxCell id="o-pPiKlTQ6JEq2CxEZl6-9" value="open 2nd image" style="text;strokeColor=none;fillColor=none;align=center;verticalAlign=middle;spacingLeft=4;spacingRight=4;overflow=hidden;points=[[0,0.5],[1,0.5]];portConstraint=eastwest;rotatable=0;whiteSpace=wrap;html=1;" vertex="1" parent="1">
          <mxGeometry x="375" y="150" width="120" height="30" as="geometry" />
        </mxCell>
        <mxCell id="o-pPiKlTQ6JEq2CxEZl6-10" value="ARE THEY A MATCH ?" style="rounded=1;whiteSpace=wrap;html=1;" vertex="1" parent="1">
          <mxGeometry x="160" y="310" width="360" height="60" as="geometry" />
        </mxCell>
        <mxCell id="o-pPiKlTQ6JEq2CxEZl6-11" value="&lt;h1 style=&quot;border-color: var(--border-color); font-size: 18px;&quot;&gt;&lt;font style=&quot;font-size: 18px;&quot;&gt;1st color is XXX&lt;/font&gt;&lt;/h1&gt;&lt;h1 style=&quot;font-size: 16px;&quot;&gt;&lt;p style=&quot;border-color: var(--border-color); font-weight: 400;&quot;&gt;&lt;font style=&quot;font-size: 16px;&quot;&gt;colors that can go with it are : xxx, xxx, xxx, xxx&lt;/font&gt;&lt;/p&gt;&lt;/h1&gt;&lt;h1 style=&quot;border-color: var(--border-color); font-size: 16px;&quot;&gt;&lt;font style=&quot;font-size: 16px;&quot;&gt;2nd color is XXX&lt;/font&gt;&lt;/h1&gt;&lt;h1 style=&quot;border-color: var(--border-color);&quot;&gt;&lt;p style=&quot;border-color: var(--border-color); font-weight: 400;&quot;&gt;&lt;font style=&quot;font-size: 16px;&quot;&gt;colors that can go with it are : xxx, xxx, xxx, xxx&lt;/font&gt;&lt;/p&gt;&lt;/h1&gt;" style="text;html=1;strokeColor=none;fillColor=none;spacing=5;spacingTop=-20;whiteSpace=wrap;overflow=hidden;rounded=0;" vertex="1" parent="1">
          <mxGeometry x="160" y="400" width="360" height="150" as="geometry" />
        </mxCell>
      </root>
    </mxGraphModel>
  </diagram>
</mxfile>
